<?xml version="1.0" encoding="UTF-8" standalone="no"?>
<!DOCTYPE svg PUBLIC "-//W3C//DTD SVG 1.1//EN" "http://www.w3.org/Graphics/SVG/1.1/DTD/svg11.dtd">
<svg width="100%" height="100%" viewBox="0 0 182 44" version="1.1" xmlns="http://www.w3.org/2000/svg" xmlns:xlink="http://www.w3.org/1999/xlink" xml:space="preserve" xmlns:serif="http://www.serif.com/" style="fill-rule:evenodd;clip-rule:evenodd;stroke-linejoin:round;stroke-miterlimit:2;">
    <g transform="matrix(1,0,0,1,-53.8194,-8.66498)">
        <g transform="matrix(0.473518,0,0,0.473518,101.281,18.2336)">
            <path d="M116.545,49.444C112.006,49.444 108.192,48.431 105.106,46.404C102.2,44.538 99.967,41.792 98.731,38.568C98.686,38.447 98.684,38.314 98.727,38.193C98.769,38.071 98.855,37.968 98.965,37.903L105.74,33.943C105.807,33.904 105.88,33.88 105.956,33.872C106.034,33.864 106.11,33.872 106.183,33.896C106.257,33.92 106.324,33.959 106.381,34.011C106.438,34.062 106.483,34.126 106.514,34.196C108.362,38.478 111.793,40.619 116.807,40.619C119.334,40.619 121.186,40.165 122.363,39.257C122.914,38.864 123.361,38.343 123.669,37.74C123.976,37.137 124.134,36.469 124.127,35.792C124.127,34.182 123.409,32.929 121.971,32.033C120.533,31.138 117.961,30.169 114.257,29.125C112.49,28.618 110.755,28.006 109.06,27.294C107.558,26.637 106.132,25.815 104.811,24.843C103.416,23.846 102.302,22.506 101.575,20.953C100.802,19.228 100.423,17.352 100.463,15.462C100.463,11.326 101.934,8.024 104.876,5.559C107.818,3.093 111.359,1.861 115.5,1.865C119.203,1.865 122.461,2.773 125.272,4.589C127.977,6.344 130.165,8.788 131.611,11.671C131.674,11.795 131.686,11.939 131.646,12.073C131.607,12.207 131.516,12.32 131.395,12.39L124.763,16.222C124.699,16.259 124.628,16.282 124.556,16.291C124.483,16.299 124.409,16.293 124.338,16.273C124.268,16.252 124.202,16.217 124.145,16.171C124.089,16.124 124.042,16.067 124.008,16.001C122.167,12.421 119.331,10.629 115.5,10.628C113.625,10.628 112.154,11.052 111.087,11.902C110.578,12.286 110.167,12.785 109.888,13.359C109.611,13.932 109.472,14.563 109.486,15.201C109.473,15.887 109.631,16.565 109.944,17.175C110.259,17.785 110.718,18.308 111.283,18.698C112.482,19.595 114.78,20.565 118.179,21.607C119.573,22.046 120.631,22.384 121.35,22.62C122.069,22.856 123.05,23.227 124.292,23.731C125.289,24.115 126.253,24.585 127.168,25.137C127.977,25.677 128.752,26.266 129.488,26.902C130.276,27.548 130.951,28.321 131.482,29.19C132.588,31.167 133.162,33.396 133.15,35.662C133.15,39.891 131.614,43.25 128.54,45.74C125.468,48.229 121.47,49.464 116.545,49.444Z" style="fill:rgb(40,51,62);fill-rule:nonzero;"/>
        </g>
        <g transform="matrix(0.473518,0,0,0.473518,101.281,18.2336)">
            <path d="M142.824,11.932C141.458,11.913 140.152,11.362 139.186,10.395C138.218,9.429 137.667,8.123 137.65,6.756C137.646,6.074 137.779,5.398 138.043,4.769C138.307,4.14 138.696,3.571 139.186,3.096C139.648,2.597 140.209,2.199 140.835,1.929C141.459,1.659 142.133,1.522 142.813,1.527C143.504,1.518 144.189,1.653 144.824,1.923C145.461,2.193 146.034,2.593 146.507,3.096C146.997,3.571 147.386,4.14 147.653,4.768C147.918,5.398 148.054,6.073 148.054,6.756C148.058,7.434 147.925,8.105 147.661,8.729C147.397,9.353 147.008,9.917 146.518,10.384C146.041,10.881 145.466,11.275 144.831,11.541C144.196,11.807 143.513,11.94 142.824,11.932ZM138.64,47.994L138.64,16.398C138.64,16.254 138.697,16.115 138.801,16.013C138.903,15.911 139.04,15.854 139.186,15.854L146.54,15.854C146.684,15.854 146.823,15.911 146.925,16.013C147.027,16.115 147.084,16.254 147.084,16.398L147.084,47.994C147.084,48.139 147.027,48.277 146.925,48.379C146.823,48.481 146.684,48.539 146.54,48.539L139.186,48.539C139.112,48.539 139.042,48.525 138.975,48.496C138.907,48.468 138.847,48.427 138.797,48.376C138.745,48.324 138.705,48.262 138.678,48.195C138.652,48.128 138.639,48.056 138.64,47.983L138.64,47.994Z" style="fill:rgb(40,51,62);fill-rule:nonzero;"/>
        </g>
        <g transform="matrix(0.473518,0,0,0.473518,101.281,18.2336)">
            <path d="M180.369,15.844L187.516,15.844C187.66,15.844 187.799,15.901 187.901,16.004C188.003,16.106 188.062,16.244 188.062,16.389L188.062,46.96C188.062,52.016 186.394,55.872 183.057,58.531C179.722,61.189 175.702,62.518 170.997,62.518C167.467,62.518 164.362,61.843 161.685,60.492C159.226,59.279 157.173,57.377 155.777,55.017C155.741,54.955 155.718,54.887 155.709,54.816C155.699,54.745 155.705,54.673 155.724,54.604C155.741,54.535 155.774,54.47 155.817,54.413C155.861,54.357 155.915,54.309 155.978,54.274L162.226,50.695C162.349,50.625 162.491,50.606 162.627,50.64C162.764,50.673 162.882,50.759 162.957,50.877C164.645,53.624 167.413,54.999 171.258,55.001C173.917,55.001 176.005,54.304 177.524,52.909C179.041,51.514 179.804,49.531 179.814,46.96L179.814,43.419C177.328,46.733 173.84,48.389 169.352,48.388C164.732,48.388 160.865,46.764 157.751,43.517C154.636,40.271 153.079,36.316 153.074,31.653C153.074,27.037 154.645,23.093 157.784,19.821C160.924,16.549 164.78,14.914 169.352,14.918C173.84,14.918 177.328,16.574 179.814,19.886L179.814,16.389C179.814,16.316 179.829,16.244 179.856,16.178C179.884,16.111 179.925,16.05 179.977,16C180.029,15.949 180.09,15.909 180.158,15.882C180.225,15.855 180.297,15.842 180.369,15.844ZM164.102,38.103C165.822,39.782 168.013,40.621 170.673,40.619C173.333,40.618 175.522,39.779 177.239,38.103C178.962,36.428 179.823,34.282 179.824,31.664C179.824,29.094 178.963,26.97 177.239,25.29C175.517,23.61 173.327,22.771 170.673,22.773C168.013,22.773 165.822,23.612 164.102,25.29C162.384,26.968 161.521,29.092 161.519,31.664C161.519,34.278 162.38,36.425 164.102,38.103Z" style="fill:rgb(40,51,62);fill-rule:nonzero;"/>
        </g>
        <g transform="matrix(0.473518,0,0,0.473518,101.281,18.2336)">
            <path d="M213.879,14.928C217.452,14.928 220.405,16.126 222.737,18.523C225.069,20.92 226.234,24.232 226.234,28.459L226.234,47.983C226.234,48.055 226.22,48.126 226.193,48.192C226.166,48.258 226.125,48.318 226.075,48.368C226.024,48.419 225.964,48.459 225.898,48.487C225.832,48.514 225.762,48.528 225.69,48.528L218.335,48.528C218.191,48.528 218.052,48.471 217.95,48.368C217.848,48.266 217.791,48.128 217.791,47.983L217.791,29.505C217.791,27.326 217.202,25.659 216.026,24.504C214.849,23.35 213.281,22.772 211.319,22.772C209.14,22.772 207.397,23.448 206.09,24.799C204.782,26.15 204.128,28.176 204.128,30.878L204.128,47.983C204.128,48.128 204.071,48.266 203.968,48.368C203.866,48.471 203.728,48.528 203.583,48.528L196.229,48.528C196.085,48.528 195.946,48.471 195.844,48.368C195.742,48.266 195.685,48.128 195.685,47.983L195.685,16.388C195.685,16.243 195.742,16.105 195.844,16.002C195.946,15.9 196.085,15.843 196.229,15.843L203.583,15.843C203.728,15.843 203.866,15.9 203.968,16.002C204.071,16.105 204.128,16.243 204.128,16.388L204.128,19.504C206.184,16.453 209.434,14.928 213.879,14.928Z" style="fill:rgb(40,51,62);fill-rule:nonzero;"/>
        </g>
        <g transform="matrix(0.473518,0,0,0.473518,101.281,18.2336)">
            <path d="M258.807,15.843L266.162,15.843C266.307,15.843 266.445,15.9 266.547,16.002C266.65,16.105 266.707,16.243 266.707,16.388L266.707,47.983C266.707,48.128 266.65,48.266 266.547,48.368C266.445,48.471 266.307,48.528 266.162,48.528L258.807,48.528C258.663,48.528 258.524,48.471 258.422,48.368C258.32,48.266 258.263,48.128 258.263,47.983L258.263,44.671C255.735,47.856 252.184,49.447 247.608,49.443C243.25,49.443 239.512,47.776 236.396,44.442C233.281,41.109 231.723,37.023 231.723,32.185C231.723,27.348 233.281,23.262 236.396,19.929C239.512,16.595 243.25,14.928 247.608,14.928C252.184,14.928 255.735,16.518 258.263,19.7L258.263,16.388C258.263,16.243 258.32,16.105 258.422,16.002C258.524,15.9 258.663,15.843 258.807,15.843ZM242.706,38.821C244.405,40.545 246.562,41.406 249.177,41.403C251.792,41.399 253.959,40.538 255.681,38.821C257.402,37.101 258.263,34.889 258.263,32.185C258.263,29.482 257.402,27.27 255.681,25.55C253.959,23.831 251.792,22.97 249.177,22.968C246.562,22.966 244.405,23.827 242.706,25.55C241.005,27.275 240.156,29.487 240.156,32.185C240.156,34.884 241.005,37.096 242.706,38.821Z" style="fill:rgb(40,51,62);fill-rule:nonzero;"/>
        </g>
        <g transform="matrix(0.473518,0,0,0.473518,101.281,18.2336)">
            <path d="M274.345,47.983L274.345,1.352C274.345,1.207 274.402,1.069 274.505,0.967C274.607,0.864 274.745,0.807 274.89,0.807L282.244,0.807C282.388,0.807 282.527,0.864 282.629,0.967C282.731,1.069 282.789,1.207 282.789,1.352L282.789,47.983C282.789,48.054 282.774,48.125 282.747,48.191C282.72,48.257 282.681,48.317 282.629,48.368C282.578,48.419 282.519,48.459 282.452,48.486C282.387,48.513 282.316,48.528 282.244,48.528L274.89,48.528C274.745,48.528 274.607,48.47 274.505,48.368C274.402,48.266 274.345,48.127 274.345,47.983Z" style="fill:rgb(40,51,62);fill-rule:nonzero;"/>
        </g>
        <g transform="matrix(0.473518,0,0,0.473518,101.281,18.2336)">
            <path d="M8.076,41.533C8.663,41.507 9.348,41.267 10.131,40.814C17.962,35.89 26.233,27.864 34.945,16.737C35.337,16.257 37.05,14.021 40.084,10.028C43.119,6.009 45.15,3.839 46.177,3.52C46.471,3.44 47.156,3.4 48.233,3.4C49.31,3.373 50.068,3.52 50.509,3.839C50.949,4.132 51.17,4.611 51.17,5.277C51.17,5.942 50.778,6.821 49.995,7.912C45.101,14.514 40.867,21.542 37.294,28.995C35.581,32.695 34.725,36.129 34.725,39.297C34.725,42.465 34.823,44.328 35.019,44.887C35.214,45.446 34.896,45.979 34.064,46.484C33.281,46.99 32.571,47.336 31.935,47.523C31.348,47.736 30.516,47.722 29.439,47.483C28.362,47.27 27.579,46.87 27.09,46.285C26.551,45.646 26.576,43.822 27.163,40.814C27.799,37.806 28.656,34.998 29.733,32.389L31.568,28.077C25.891,34.838 20.874,39.869 16.518,43.17C12.162,46.471 7.929,48.135 3.818,48.161C1.273,48.108 0,46.831 0,44.328C0,40.575 2.08,34.639 6.24,26.519C10.4,18.4 13.435,12.996 15.344,10.308C17.301,7.593 18.476,5.902 18.867,5.237C19.895,3.719 21.461,2.974 23.566,3.001C25.67,3.001 26.747,3.546 26.796,4.638C26.796,5.436 26.233,6.634 25.108,8.232C15.857,21.648 10.18,32.749 8.076,41.533Z" style="fill:rgb(229,75,77);fill-rule:nonzero;"/>
        </g>
        <g transform="matrix(0.473518,0,0,0.473518,101.281,18.2336)">
            <path d="M93.214,38.5C93.214,39.831 89.714,41.169 84.135,44.736C78.555,48.303 79.728,45.659 76.938,46.804C74.197,47.922 71.432,48.481 68.642,48.481C63.454,48.454 60.86,46.218 60.86,41.773C60.86,39.67 61.643,36.382 63.209,31.91C64.776,27.411 65.608,24.962 65.706,24.563C60.518,25.495 55.55,29.035 50.803,35.184C49.824,36.489 48.258,38.711 46.104,41.853C43.999,44.967 42.507,46.817 41.626,47.403C40.549,48.095 39.13,48.441 37.368,48.441C35.606,48.441 34.7,48.095 34.651,47.403C34.651,46.125 42.507,35.53 58.217,15.619C60.664,12.477 62.084,10.721 62.475,10.348C63.307,9.469 65.045,9.509 67.688,10.468C68.471,10.76 68.862,11.053 68.862,11.346C68.911,11.639 68.544,12.105 67.761,12.744C65.95,14.288 64.335,16.084 62.916,18.134L60.126,22.087L62.475,20.53C64.58,19.119 66.268,18.054 67.541,17.336C68.813,16.59 69.866,16.178 70.698,16.098C71.579,15.991 72.484,15.938 73.414,15.938C75.421,16.018 76.473,16.604 76.571,17.695C76.571,18.227 76.228,18.946 75.543,19.851C72.46,23.711 70.086,29.554 68.422,37.38C67.981,39.617 67.761,41.586 67.761,43.29C67.81,44.967 68.569,45.819 70.037,45.846C72.093,45.846 75.837,44.115 81.269,40.655C81.345,42.167 81.709,45.789 84.107,43.5C84.743,42.941 87.754,42.527 88.929,42.5C90.152,42.66 93.019,37.808 93.214,38.5Z" style="fill:rgb(229,75,77);fill-rule:nonzero;"/>
        </g>
        <g transform="matrix(0.473518,0,0,0.473518,101.281,18.2336)">
            <path d="M100.081,19.292C97.634,19.505 94.477,22.833 90.611,29.275C86.744,35.717 84.811,39.523 84.811,40.695C84.811,41.866 85.007,42.452 85.399,42.452C87.454,42.452 90.66,40.056 95.016,35.264C99.372,30.446 101.55,26.04 101.55,22.047C101.55,20.237 101.06,19.319 100.081,19.292ZM98.907,14.341C100.277,14.341 101.452,14.554 102.431,14.98C104.144,15.778 105,17.322 105,19.612C105,30.073 101.574,37.913 94.722,43.13L93.694,43.969C89.436,47.323 86.01,49 83.416,49C80.235,48.814 78.4,47.549 77.91,45.207C77.91,43.263 79.354,39.324 82.242,33.387C85.178,27.451 88.531,22.314 92.299,17.974C94.453,15.579 96.655,14.367 98.907,14.341Z" style="fill:rgb(229,75,77);fill-rule:nonzero;"/>
        </g>
        <g transform="matrix(0.879415,0,0,0.879415,4.03018,2.73776)">
            <g transform="matrix(0.180205,0,0,0.180205,56.6163,6.73996)">
                <path d="M141.239,13.601C68.688,13.742 9.589,73.186 10.002,145.587C10.365,213.206 62.037,268.719 128.14,275.376C128.35,275.397 128.563,275.373 128.765,275.308C128.965,275.241 129.15,275.134 129.307,274.991C129.464,274.849 129.59,274.675 129.675,274.482C129.76,274.289 129.804,274.079 129.802,273.868C129.802,221.665 129.125,176.772 129.062,128.998L129.062,128.855C129.062,128.455 129.221,128.071 129.505,127.789C129.788,127.506 130.173,127.347 130.573,127.347L140.65,112.676L151.689,121.469C152.089,121.469 152.474,121.628 152.757,121.91C153.04,122.193 153.2,122.577 153.2,122.977L153.2,273.868C153.199,274.079 153.242,274.288 153.327,274.48C153.412,274.673 153.537,274.847 153.693,274.989C153.85,275.131 154.034,275.239 154.234,275.306C154.434,275.372 154.647,275.396 154.858,275.376C221.207,268.694 273,212.8 273,144.828C273,72.266 213.982,13.461 141.239,13.601ZM178.643,246.139C178.416,246.22 178.171,246.244 177.932,246.211C177.692,246.178 177.464,246.088 177.266,245.949C177.069,245.809 176.908,245.624 176.797,245.41C176.686,245.195 176.628,244.957 176.628,244.716L176.628,223.177C176.629,222.748 176.752,222.329 176.981,221.968C177.212,221.607 177.54,221.318 177.928,221.135C192.368,214.256 204.563,203.44 213.104,189.938C221.645,176.435 226.183,160.796 226.195,144.828C226.195,97.782 187.48,59.596 140.181,60.32C95.189,61.004 58.284,97.199 56.848,142.077C56.323,158.507 60.605,174.733 69.172,188.774C77.738,202.813 90.217,214.058 105.084,221.135C105.473,221.318 105.802,221.607 106.033,221.968C106.264,222.329 106.388,222.748 106.39,223.177L106.39,244.721C106.39,244.963 106.332,245.201 106.22,245.415C106.109,245.629 105.949,245.814 105.75,245.953C105.553,246.093 105.325,246.183 105.086,246.216C104.846,246.25 104.602,246.224 104.374,246.144C62.713,230.894 32.982,190.732 33.41,143.823C33.939,85.223 81.908,37.413 140.65,36.961C200.64,36.498 249.592,85.067 249.592,144.828C249.592,191.3 219.992,231 178.643,246.139Z" style="fill:rgb(229,75,77);fill-rule:nonzero;"/>
            </g>
            <g transform="matrix(0.180205,0,0,0.180205,56.6163,6.73996)">
                <path d="M129.636,0.401C129.408,0.629 127.358,1.258 125.137,1.829C114.031,4.628 106.8,10.458 104.235,18.571C103.268,21.657 83.221,68.283 82.254,70.685C82.025,71.256 81.685,71.714 81.457,71.714C81.228,71.714 75.646,70.572 69.042,69.141C44.554,63.94 26.728,61.312 14.483,61.199C7.423,61.141 5.485,61.312 3.207,62.17C1.214,62.969 0.417,63.598 0.131,64.74C-0.496,67.255 1.044,68.912 6.51,71.827C22.797,80.398 44.383,87.427 64.485,90.684L72.571,92L141.196,92C215.175,92 212.212,92.113 228.329,88.856C238.635,86.741 249.571,83.484 259.935,79.314C268.648,75.828 280.609,70.057 282.09,68.57C282.604,68.057 283,66.742 283,65.655C283,63.827 282.772,63.54 280.551,62.569C273.317,59.37 253.955,61.141 219.784,68.112C201.276,71.882 200.99,71.94 200.99,71.54C200.99,71.369 196.321,58.168 190.684,42.226C184.989,26.226 179.863,21.654 179.349,19.826C176.444,10.626 169.326,4.512 158.222,1.884C155.886,1.313 153.951,0.685 153.839,0.456C153.613,-0.112 130.15,-0.17 129.636,0.401Z" style="fill:rgb(40,51,62);fill-rule:nonzero;"/>
            </g>
            <g transform="matrix(0.180205,0,0,0.180205,56.6163,6.73996)">
                <path d="M125.563,84.189C123.789,84.333 117.901,84.774 112.441,85.211C92.01,86.89 76.191,90.252 65.835,95.226C56.757,99.611 54.343,103.777 57.041,110.282C58.318,113.425 72.152,134.622 76.619,140.322C86.622,153.043 98.255,156.697 113.862,152.09C122.232,149.603 126.703,147.264 132.659,142.513C140.605,136.082 142.803,136.082 150.536,142.513C162.381,152.379 180.894,156.694 191.678,152.161C200.332,148.506 205.084,143.388 217.425,124.311C226.435,110.567 227,109.4 227,106.038C227,101.579 225.439,99.533 219.41,96.39C208.699,90.693 196.57,87.695 175.359,85.501C165.287,84.478 132.088,83.603 125.563,84.189ZM116.268,111.672C124.426,113.206 126.271,115.033 125.279,120.515C124.71,123.658 120.527,128.703 116.908,130.6C108.538,134.989 99.812,132.357 87.755,121.757C81.439,116.201 81.087,114.01 86.406,112.183C92.647,110.063 106.621,109.844 116.268,111.672ZM190.754,110.793C196.998,111.672 200.401,113.425 200.401,115.908C200.401,118.102 190.329,126.727 183.732,130.015C177.916,133.01 170.963,133.232 166.284,130.745C160.467,127.602 156.424,120.437 157.914,116.053C158.41,114.518 159.403,113.784 162.313,112.761C168.974,110.5 181.815,109.622 190.754,110.793Z" style="fill:rgb(40,51,62);fill-rule:nonzero;"/>
            </g>
            <g transform="matrix(0.180205,0,0,0.180205,56.6163,6.73996)">
                <path d="M122.005,162.865C116.464,164.716 96.181,168.182 71.292,171.418C61.491,172.803 53.308,174.076 53.051,174.424C52.882,174.654 53.138,174.89 53.734,174.89C54.247,174.89 59.957,176.163 66.433,177.778C90.81,183.902 112.375,185.635 122.688,182.399C125.669,181.473 131.041,179.045 134.704,177.082L141.354,173.498L149.368,177.542C153.801,179.853 160.107,182.281 163.345,183.089C170.333,184.709 187.891,183.896 201.272,181.238C212.181,179.157 230.334,174.648 229.995,174.07C229.826,173.952 220.195,172.449 208.43,170.834C183.628,167.48 162.914,163.785 158.655,162.164C153.288,160.083 149.025,160.779 144.848,164.362C141.267,167.48 140.758,167.598 139.733,165.983C136.834,161.132 130.445,159.977 122.005,162.865Z" style="fill:rgb(40,51,62);fill-rule:nonzero;"/>
            </g>
            <g transform="matrix(0.180205,0,0,0.180205,56.6163,6.73996)">
                <path d="M129,225.124C129,225.304 132.056,234.08 135.778,244.606C140.276,257.191 142.721,263.505 143.001,262.968C143.389,262.251 154,225.574 154,225.035C154,224.9 152.943,225.17 151.666,225.617C145.055,227.857 137.668,227.992 132.167,225.976C130.445,225.348 129,224.943 129,225.124Z" style="fill:rgb(40,51,62);fill-rule:nonzero;"/>
            </g>
        </g>
    </g>
</svg>
